<svg xmlns="http://www.w3.org/2000/svg" fill="none" viewBox="0 0 40 40" id="x">
  <path fill="url(#paint0_linear_2_625)" d="M30.6904 14.0237C31.9921 12.7219 31.9921 10.6114 30.6904 9.30962C29.3886 8.00788 27.2781 8.00788 25.9763 9.30962L20 15.2859L14.0237 9.30962C12.722 8.00788 10.6114 8.00788 9.30965 9.30962C8.00791 10.6114 8.00791 12.7219 9.30965 14.0237L15.286 20L9.30965 25.9763C8.00791 27.278 8.00791 29.3886 9.30965 30.6903C10.6114 31.9921 12.722 31.9921 14.0237 30.6903L20 24.714L25.9763 30.6903C27.2781 31.9921 29.3886 31.9921 30.6904 30.6903C31.9921 29.3886 31.9921 27.278 30.6904 25.9763L24.7141 20L30.6904 14.0237Z"></path>
  <defs>
    <linearGradient id="paint0_linear_2_625" x1="20" x2="20" y1="8.333" y2="31.667" gradientUnits="userSpaceOnUse">
      <stop stop-color="#9b4d57" class="stopColor834d9b svgShape"></stop>
      <stop offset="1" stop-color="#f09da8" class="stopColord04ed6 svgShape"></stop>
    </linearGradient>
  </defs>
</svg>
